<?xml version="1.0" standalone="no"?><!DOCTYPE svg PUBLIC "-//W3C//DTD SVG 1.1//EN"
  "http://www.w3.org/Graphics/SVG/1.1/DTD/svg11.dtd">
<svg class="icon" width="200px" height="200.00px" viewBox="0 0 1024 1024" version="1.1"
     xmlns="http://www.w3.org/2000/svg">
  <path
    d="M0 281.6c0-113.1008 96.3328-204.8 215.6032-204.8h592.7936C927.488 76.8 1024 168.704 1024 281.6c0 113.1008-96.3328 204.8-215.6032 204.8H215.6032C96.512 486.4 0 394.496 0 281.6z m51.2 0c0 84.096 73.1136 153.6 164.4032 153.6h592.7936C899.8912 435.2 972.8 365.9008 972.8 281.6c0-84.096-73.1136-153.6-164.4032-153.6H215.6032C124.1088 128 51.2 197.2992 51.2 281.6zM0 742.4c0-113.1008 96.3328-204.8 215.6032-204.8h592.7936C927.488 537.6 1024 629.504 1024 742.4c0 113.1008-96.3328 204.8-215.6032 204.8H215.6032C96.512 947.2 0 855.296 0 742.4z m51.2 0c0 84.096 73.1136 153.6 164.4032 153.6h592.7936C899.8912 896 972.8 826.7008 972.8 742.4c0-84.096-73.1136-153.6-164.4032-153.6H215.6032C124.1088 588.8 51.2 658.0992 51.2 742.4z m768 102.4a102.4 102.4 0 1 0 0-204.8 102.4 102.4 0 0 0 0 204.8zM217.6 384a102.4 102.4 0 1 0 0-204.8 102.4 102.4 0 0 0 0 204.8z"/>
</svg>
