<?xml version="1.0" standalone="no"?><!DOCTYPE svg PUBLIC "-//W3C//DTD SVG 1.1//EN"
  "http://www.w3.org/Graphics/SVG/1.1/DTD/svg11.dtd">
<svg class="icon" width="200px" height="199.61px" viewBox="0 0 1026 1024" version="1.1"
     xmlns="http://www.w3.org/2000/svg">
  <path
    d="M247.224171 259.215877a193.222844 193.222844 0 1 1 193.384989 193.222844 194.574053 194.574053 0 0 1-193.222844-193.222844z m-123.608572 688.575952a57.345297 57.345297 0 0 1-58.156022-56.534572v-1.567402A375.852212 375.852212 0 0 1 404.829153 517.89127h39.779585a256.243218 256.243218 0 0 0 138.255674-43.995355l14.647102-10.80967a264.134276 264.134276 0 0 0 98.47609-204.248707 256.891798 256.891798 0 1 0-415.307506 204.248707l18.32239 10.80967-18.32239 7.350575A437.791618 437.791618 0 0 0 0.007027 889.20342a122.851895 122.851895 0 0 0 121.71688 124.149055h333.586403a31.834477 31.834477 0 0 0 28.80777-32.969492 29.672543 29.672543 0 0 0-28.80777-32.969492H123.615599z m841.586826-145.606249a107.664309 107.664309 0 0 0-94.800802 108.907421 87.558324 87.558324 0 0 0 7.350575 32.969492l-47.13016 25.672966-18.322389-18.32239a104.097118 104.097118 0 0 0-61.777262-21.619339 118.906365 118.906365 0 0 0-61.777262 21.619339c-7.350575 7.350575-14.647102 10.80967-18.32239 18.32239l-43.995355-25.672966a95.935818 95.935818 0 0 0 7.350575-32.969492 109.61005 109.61005 0 0 0-94.800802-108.907421c0-7.350575-3.675288-21.619339-3.675288-36.64478 0-10.80967 3.675288-25.672965 3.675288-36.64478a108.096696 108.096696 0 0 0 94.800802-109.447904 78.586298 78.586298 0 0 0-7.350575-32.969493l47.130159-25.672965a62.101552 62.101552 0 0 0 18.32239 14.647102 102.691861 102.691861 0 0 0 58.156023 21.61934 108.096696 108.096696 0 0 0 58.156022-21.61934c7.350575-7.350575 14.647102-10.80967 18.32239-14.647102l47.130159 25.672965a95.989866 95.989866 0 0 0-7.350575 32.969493 110.528872 110.528872 0 0 0 95.287238 109.447904c0 7.350575 3.134804 21.619339 3.134804 36.64478a95.935818 95.935818 0 0 1 0.540483 36.64478z m51.34593-91.125515a38.698617 38.698617 0 0 0-32.969492-32.969492h-3.675288a57.345297 57.345297 0 0 1-58.264119-58.047925c0-7.350575 3.134804-18.32239 3.134805-21.61934a45.562757 45.562757 0 0 0-14.647103-51.34593l-65.452549-36.64478h-17.781907a38.968859 38.968859 0 0 0-32.969492 14.647102 85.774728 85.774728 0 0 1-43.995355 25.672965c-14.647102 0-36.64478-18.32239-47.130159-25.672965a46.481579 46.481579 0 0 0-32.969493-14.647102c-7.350575 0-10.80967 0-14.647102 3.134804l-69.127837 36.64478a46.157289 46.157289 0 0 0-14.647102 51.345931 90.585031 90.585031 0 0 1 3.134804 21.619339 57.2372 57.2372 0 0 1-56.048137 58.156022h-5.783173a39.239101 39.239101 0 0 0-32.969492 32.969492 313.480418 313.480418 0 0 0-7.350576 54.480735 145.173863 145.173863 0 0 0 7.350576 54.480735 38.698617 38.698617 0 0 0 32.969492 32.969492h3.567191a57.345297 57.345297 0 0 1 58.156022 58.156022c0 7.350575-3.134804 18.32239-3.134804 21.61934a45.562757 45.562757 0 0 0 14.647102 51.34593l65.45255 36.64478a33.023541 33.023541 0 0 1 18.32239-3.675288 38.374327 38.374327 0 0 0 32.969492-14.647102c7.350575-7.350575 28.807769-28.807769 47.130159-28.807769a82.099441 82.099441 0 0 1 47.13016 28.807769 46.481579 46.481579 0 0 0 32.969492 14.647102 37.833844 37.833844 0 0 0 18.32239-3.134804l65.452549-36.64478a46.157289 46.157289 0 0 0 14.647103-51.34593 85.018051 85.018051 0 0 1-3.134805-21.619339 57.345297 57.345297 0 0 1 58.156023-58.156023h3.134804a39.239101 39.239101 0 0 0 32.969492-32.969492 259.43207 259.43207 0 0 0 7.350575-54.480735 198.033147 198.033147 0 0 1-10.323234-50.805447z m-266.080017 101.610895a47.130159 47.130159 0 1 1 47.13016-47.13016 47.616595 47.616595 0 0 1-47.13016 47.13016z m17.781907-145.60625a99.665154 99.665154 0 0 0-116.852528 120.041381 101.124459 101.124459 0 0 0 80.099651 80.099652 98.584187 98.584187 0 0 0 116.79848-116.79848 100.259685 100.259685 0 0 0-80.099651-83.288504z"/>
</svg>
