<?xml version="1.0" standalone="no"?><!DOCTYPE svg PUBLIC "-//W3C//DTD SVG 1.1//EN"
  "http://www.w3.org/Graphics/SVG/1.1/DTD/svg11.dtd">
<svg class="icon" width="200px" height="200.00px" viewBox="0 0 1024 1024" version="1.1"
     xmlns="http://www.w3.org/2000/svg">
  <path
    d="M336.213333 146.773333m-109.226666 0a109.226667 109.226667 0 1 0 218.453333 0 109.226667 109.226667 0 1 0-218.453333 0ZM740.693333 706.56m-71.68 0a71.68 71.68 0 1 0 143.36 0 71.68 71.68 0 1 0-143.36 0ZM684.373333 899.413333V870.4c-20.48-6.826667-39.253333-18.773333-54.613333-32.426667l-27.306667 17.066667c-17.066667 10.24-37.546667 5.12-49.493333-11.946667l-22.186667-34.133333c-10.24-17.066667-5.12-37.546667 11.946667-49.493333l29.013333-18.773334c-1.706667-10.24-3.413333-22.186667-3.413333-34.133333 0-8.533333 0-17.066667 1.706667-25.6l-30.72-18.773333c-17.066667-10.24-22.186667-32.426667-11.946667-49.493334l22.186667-34.133333c10.24-17.066667 32.426667-22.186667 49.493333-11.946667l23.893333 15.36c17.066667-17.066667 37.546667-29.013333 59.733334-37.546666v-39.253334c0-18.773333 15.36-35.84 35.84-35.84h40.96c18.773333 0 35.84 15.36 35.84 35.84v37.546667c22.186667 6.826667 44.373333 20.48 61.44 35.84l20.48-13.653333c17.066667-10.24 37.546667-5.12 49.493333 11.946666l22.186667 34.133334c10.24 17.066667 5.12 37.546667-11.946667 49.493333l-25.6 17.066667c1.706667 10.24 1.706667 18.773333 1.706667 29.013333 0 11.946667-1.706667 22.186667-3.413334 34.133333l29.013334 18.773334c17.066667 10.24 22.186667 32.426667 11.946666 49.493333l-22.186666 34.133333c-10.24 17.066667-32.426667 22.186667-49.493334 11.946667L853.333333 836.266667c-17.066667 15.36-37.546667 25.6-58.026666 32.426666v29.013334c0 18.773333-15.36 35.84-35.84 35.84h-40.96c-18.773333 0-34.133333-15.36-34.133334-34.133334z m215.04-75.093333l22.186667-34.133333v-1.706667l-51.2-32.426667 3.413333-11.946666c3.413333-11.946667 5.12-23.893333 5.12-37.546667 0-11.946667-1.706667-22.186667-3.413333-32.426667l-5.12-11.946666 47.786667-29.013334V631.466667l-22.186667-34.133334h-1.706667l-44.373333 27.306667-8.533333-10.24c-18.773333-20.48-42.666667-34.133333-68.266667-39.253333l-13.653333-3.413334v-64.853333h-40.96v64.853333l-13.653334 3.413334c-25.6 6.826667-47.786667 20.48-66.56 40.96l-10.24 10.24-46.08-29.013334H580.266667l-22.186667 34.133334v1.706666l51.2 32.426667-3.413333 11.946667c-1.706667 10.24-3.413333 20.48-3.413334 30.72 0 11.946667 1.706667 25.6 5.12 37.546666l3.413334 11.946667-51.2 32.426667v1.706666l22.186666 34.133334h1.706667l49.493333-30.72 10.24 10.24c17.066667 17.066667 39.253333 30.72 61.44 35.84l13.653334 3.413333v56.32h40.96v-54.613333l13.653333-3.413334c25.6-6.826667 47.786667-18.773333 64.853333-37.546666l10.24-10.24 51.2 29.013333zM863.573333 967.68H63.146667M64.853333 981.333333h843.093334c6.826667 0 13.653333-6.826667 13.653333-13.653333s-5.12-13.653333-13.653333-13.653333H64.853333c-6.826667 0-13.653333 6.826667-13.653333 13.653333s5.12 13.653333 13.653333 13.653333zM786.773333 981.333333c6.826667 0 13.653333-6.826667 13.653334-13.653333V904.533333c0-6.826667-6.826667-13.653333-13.653334-13.653333s-13.653333 6.826667-13.653333 13.653333v63.146667c0 6.826667 5.12 13.653333 13.653333 13.653333zM542.72 981.333333c6.826667 0 13.653333-6.826667 13.653333-13.653333V904.533333c0-6.826667-6.826667-13.653333-13.653333-13.653333s-13.653333 6.826667-13.653333 13.653333v63.146667c0 6.826667 5.12 13.653333 13.653333 13.653333zM539.306667 385.706667l184.32 56.32c15.36 6.826667 34.133333 6.826667 49.493333-1.706667 27.306667-15.36 37.546667-49.493333 23.893333-76.8-8.533333-17.066667-23.893333-27.306667-40.96-29.013333l-266.24-80.213334c-8.533333-8.533333-22.186667-10.24-34.133333-6.826666l-139.946667 49.493333c-10.24 3.413333-17.066667 10.24-20.48 18.773333L97.28 512c-13.653333 10.24-22.186667 27.306667-22.186667 46.08 0 30.72 25.6 56.32 56.32 56.32 18.773333 0 34.133333-8.533333 44.373334-20.48l151.893333-151.893333 63.146667 184.32c1.706667 3.413333 1.706667 5.12 3.413333 8.533333l-100.693333 69.973333c-3.413333 1.706667-5.12 5.12-6.826667 6.826667-6.826667 3.413333-11.946667 6.826667-15.36 13.653333L170.666667 899.413333c-1.706667 1.706667-1.706667 5.12-3.413334 6.826667-3.413333 6.826667-6.826667 15.36-6.826666 25.6 0 29.013333 23.893333 51.2 51.2 51.2 18.773333 0 34.133333-10.24 44.373333-25.6 1.706667-1.706667 3.413333-3.413333 5.12-6.826667l93.866667-162.133333 162.133333-114.346667c3.413333-3.413333-44.373333-23.893333-15.36-78.506666 6.826667-11.946667 37.546667-66.56 59.733333-68.266667 5.12 0 30.72 17.066667 27.306667 8.533333-8.533333-13.653333-49.493333-150.186667-49.493333-150.186666zM448.853333 981.333333c6.826667 0 13.653333-6.826667 13.653334-13.653333V904.533333c0-6.826667-6.826667-13.653333-13.653334-13.653333s-13.653333 6.826667-13.653333 13.653333v63.146667c-1.706667 6.826667 5.12 13.653333 13.653333 13.653333zM353.28 981.333333c6.826667 0 13.653333-6.826667 13.653333-13.653333V904.533333c0-6.826667-6.826667-13.653333-13.653333-13.653333s-13.653333 6.826667-13.653333 13.653333v63.146667c0 6.826667 6.826667 13.653333 13.653333 13.653333zM259.413333 981.333333c6.826667 0 13.653333-6.826667 13.653334-13.653333V904.533333c0-6.826667-6.826667-13.653333-13.653334-13.653333s-13.653333 6.826667-13.653333 13.653333v63.146667c0 6.826667 6.826667 13.653333 13.653333 13.653333z"/>
</svg>
