<?xml version="1.0" standalone="no"?><!DOCTYPE svg PUBLIC "-//W3C//DTD SVG 1.1//EN"
  "http://www.w3.org/Graphics/SVG/1.1/DTD/svg11.dtd">
<svg t="1632278002683" class="icon" viewBox="0 0 1024 1024" version="1.1" xmlns="http://www.w3.org/2000/svg"
     p-id="80949" xmlns:xlink="http://www.w3.org/1999/xlink" width="200" height="200">
  <defs>
    <style type="text/css"></style>
  </defs>
  <path
    d="M920.8 429.84533333c0-209.16266667-198.144-379.328-441.68533333-379.328S37.44 220.68266667 37.44 429.84533333c0 123.79733333 70.47466667 239.76533333 188.62933333 310.29333334l18.47466667 11.47733333v54.19733333c0 14.88 8.16 28.46933333 21.28 35.46666667a40.24213333 40.24213333 0 0 0 18.90133333 4.736c7.84 0 15.648-2.304 22.432-6.85866667l51.98933334-34.98666666 10.82666666-7.68c0.91733333-0.45866667 1.48266667-0.59733333 1.856-0.61866667l14.528 3.62666667c35.68 6.26133333 65.632 9.184 94.22933334 9.184 128.84266667 0 251.136-48.75733333 335.488-133.77066667 68.224-68.75733333 105.41866667-155.88266667 104.72533333-245.06666667z m-440.21333333 312.62933334c-24.33066667 0-50.272-2.528-81.52533334-7.968l-14.83733333-3.73333334c-16.64-3.01866667-33.536 0.16-48.864 9.22666667l-24.59733333 16.928v-5.32266667c0-24.704-14.28266667-48.512-33.6-58.19733333l-17.25866667-10.208c-97.824-58.38933333-156.23466667-153.09866667-156.23466667-253.36533333 0-172.65066667 168.42666667-313.10933333 375.456-313.10933334s375.46666667 140.45866667 375.46666667 313.376c0.56533333 71.65866667-29.824 142.03733333-85.51466667 198.176-72.02133333 72.576-177.17333333 114.19733333-288.49066666 114.19733334z"
    p-id="80950"></path>
  <path
    d="M981.97333333 576.71466667c-2.99733333-18.02666667-20.10666667-30.18666667-38.09066666-27.22133334-18.03733333 2.99733333-30.22933333 20.05333333-27.22133334 38.09066667 12.94933333 77.84533333-5.52533333 149.22666667-52.032 200.97066667-10.592 11.776-23.70133333 22.88-41.16266666 34.85866666l-10.35733334 5.70666667c-14.10133333 9.38666667-22.34666667 24.52266667-23.264 42.67733333-15.69066667-11.09333333-34.82666667-16.04266667-51.01866666-12.97066666l-14.86933334 2.176c-50.752 7.25333333-105.376-0.33066667-158.016-21.78133334-16.896-6.92266667-36.24533333 1.23733333-43.15733333 18.16533334-6.90133333 16.928 1.23733333 36.256 18.16533333 43.15733333 63.47733333 25.86666667 129.96266667 34.848 192.43733334 26.00533333l15.328-2.25066666c1.04533333 0.40533333 2.66666667 1.248 4.01066666 2.45333333l40.29866667 36.20266667c7.86133333 7.08266667 17.73866667 10.79466667 27.56266667 10.79466666 5.408 0 10.79466667-1.13066667 15.82933333-3.43466666 13.39733333-6.15466667 21.824-19.75466667 21.472-34.69866667l-1.29066667-51.136-0.18133333-3.584 2.86933333-1.74933333c22.4-15.21066667 40.24533333-30.35733333 54.60266667-46.32533334 59.36-66.08 84.18133333-159.424 68.08533333-256.10666666zM266.28266667 382.90133333c-31.66933333-0.128-57.216 25.42933333-57.216 57.20533334 0 31.65866667 25.55733333 57.216 57.216 57.216 31.66933333 0 57.216-25.55733333 57.216-57.216-0.01066667-31.65866667-25.55733333-57.20533333-57.216-57.20533334zM483.648 382.90133333c-31.65866667-0.11733333-57.216 25.42933333-57.216 57.216 0 31.65866667 25.55733333 57.216 57.216 57.216s57.20533333-25.55733333 57.20533333-57.216c0-31.66933333-25.54666667-57.216-57.20533333-57.216zM694.29333333 382.90133333c-31.65866667-0.11733333-57.20533333 25.42933333-57.20533333 57.216 0 31.65866667 25.54666667 57.216 57.20533333 57.216 31.66933333 0 57.216-25.55733333 57.216-57.216 0-31.66933333-25.55733333-57.216-57.216-57.216z"
    p-id="80951"></path>
</svg>
