<?xml version="1.0" standalone="no"?><!DOCTYPE svg PUBLIC "-//W3C//DTD SVG 1.1//EN"
  "http://www.w3.org/Graphics/SVG/1.1/DTD/svg11.dtd">
<svg class="icon" width="200px" height="200.00px" viewBox="0 0 1024 1024" version="1.1"
     xmlns="http://www.w3.org/2000/svg">
  <path
    d="M398.222222 56.888889a28.444444 28.444444 0 0 1 28.444445 28.444444v312.888889a28.444444 28.444444 0 0 1-28.444445 28.444445H85.333333a28.444444 28.444444 0 0 1-28.444444-28.444445V85.333333a28.444444 28.444444 0 0 1 28.444444-28.444444h312.888889m0-56.888889H85.333333A85.333333 85.333333 0 0 0 0 85.333333v312.888889a85.333333 85.333333 0 0 0 85.333333 85.333334h312.888889a85.333333 85.333333 0 0 0 85.333334-85.333334V85.333333A85.333333 85.333333 0 0 0 398.222222 0zM398.222222 597.333333a28.444444 28.444444 0 0 1 28.444445 28.444445v312.888889a28.444444 28.444444 0 0 1-28.444445 28.444444H85.333333a28.444444 28.444444 0 0 1-28.444444-28.444444V625.777778a28.444444 28.444444 0 0 1 28.444444-28.444445h312.888889m0-56.888889H85.333333A85.333333 85.333333 0 0 0 0 625.777778v312.888889a85.333333 85.333333 0 0 0 85.333333 85.333333h312.888889a85.333333 85.333333 0 0 0 85.333334-85.333333V625.777778a85.333333 85.333333 0 0 0-85.333334-85.333334zM938.666667 56.888889a28.444444 28.444444 0 0 1 28.444444 28.444444v312.888889a28.444444 28.444444 0 0 1-28.444444 28.444445H625.777778a28.444444 28.444444 0 0 1-28.444445-28.444445V85.333333a28.444444 28.444444 0 0 1 28.444445-28.444444h312.888889m0-56.888889H625.777778a85.333333 85.333333 0 0 0-85.333334 85.333333v312.888889a85.333333 85.333333 0 0 0 85.333334 85.333334h312.888889a85.333333 85.333333 0 0 0 85.333333-85.333334V85.333333a85.333333 85.333333 0 0 0-85.333333-85.333333z"/>
  <path
    d="M782.222222 782.222222m-73.244444 0a73.244444 73.244444 0 1 0 146.488889 0 73.244444 73.244444 0 1 0-146.488889 0Z"/>
  <path
    d="M825.884444 1024h-87.324444l-18.702222-52.622222-27.235556-11.377778-50.488889 23.964444-61.724444-61.724444L604.444444 871.822222l-11.306666-27.235555-52.693334-18.702223v-87.324444l52.622223-18.702222L604.444444 692.622222l-23.964444-50.488889 61.724444-61.724444L692.622222 604.444444l27.235556-11.306666 18.702222-52.622222h87.324444l18.702223 52.622222L871.822222 604.444444l50.488889-23.964444 61.724445 61.724444L960 692.622222l11.306667 27.235556 52.622222 18.702222v87.324444l-52.622222 18.702223-11.306667 27.235555 23.964444 50.488889-61.724444 61.724445-50.417778-24.035556-27.235555 11.306667z m-59.591111-39.324444h31.857778l15.288889-42.666667 59.52-24.675556 41.173333 19.555556 22.471111-22.471111-19.271111-41.457778 24.675556-59.52 42.666667-15.288889v-31.857778l-42.666667-15.288889-24.675556-59.52 19.555556-41.173333-22.471111-22.471111-41.457778 19.271111-59.52-24.675555-15.288889-42.666667h-31.857778l-15.288889 42.666667L691.484444 647.111111l-41.173333-19.555555-22.471111 22.471111L647.111111 691.484444l-24.675555 59.52-42.666667 15.288889v31.857778l42.666667 15.288889 24.675555 59.52-19.555555 41.173333 22.471111 22.471111 41.457777-19.271111 59.52 24.675556z"/>
</svg>
