<?xml version="1.0" standalone="no"?><!DOCTYPE svg PUBLIC "-//W3C//DTD SVG 1.1//EN"
  "http://www.w3.org/Graphics/SVG/1.1/DTD/svg11.dtd">
<svg class="icon" width="200px" height="200.00px" viewBox="0 0 1024 1024" version="1.1"
     xmlns="http://www.w3.org/2000/svg">
  <path
    d="M371.9 639.5H123.5c-33.1 0-60-26.9-60-60V123.6c0-33.1 26.9-60 60-60h776.4c33.1 0 60 26.9 60 60V458c0 8.1 3.1 16 8.7 21.9 19.9 21.2 55.4 7.1 55.4-21.9V120c0-66.3-53.7-120-120-120H120C53.7 0 0 53.7 0 120v462.3c0 66.3 53.7 120 120 120h251.9c15 0 27.9-10.6 30.8-25.3 3.9-19.4-11-37.5-30.8-37.5zM180.4 247.2c0 65.5 53.1 118.6 118.6 118.6s118.6-53.1 118.6-118.6S364.5 128.6 299 128.6s-118.6 53.1-118.6 118.6z m287 328.5H127.5v-73c0-57.9 47-104.9 104.9-104.9h130c57.9 0 104.9 47 104.9 104.9v73h0.1z m78.5-376.4h291.9c13.2 0 23.9 10.7 23.9 23.9s-10.7 23.9-23.9 23.9H545.9c-13.2 0-23.9-10.7-23.9-23.9s10.7-23.9 23.9-23.9z m0 117.3h291.9c13.2 0 23.9 10.7 23.9 23.9s-10.7 23.9-23.9 23.9H545.9c-13.2 0-23.9-10.7-23.9-23.9s10.7-23.9 23.9-23.9zM740 614c33.7 0 65.3 13.1 89.1 36.9 23.8 23.8 36.9 55.4 36.9 89.1s-13.1 65.3-36.9 89.1C805.3 852.9 773.7 866 740 866c-33.7 0-65.3-13.1-89.1-36.9S614 773.7 614 740s13.1-65.3 36.9-89.1c23.8-23.8 55.4-36.9 89.1-36.9m0-64c-104.9 0-190 85.1-190 190s85.1 190 190 190 190-85.1 190-190-85.1-190-190-190zM550.5 527.9l-22.6 22.6c-6.2 6.2-6.2 16.4 0 22.6l103.3 103.3c10.9-18.7 26.6-34.3 45.3-45.3L573.1 527.9c-6.2-6.3-16.4-6.3-22.6 0zM756 456h-32c-8.8 0-16 7.2-16 16v146.1c10.2-2.7 20.9-4.1 32-4.1s21.8 1.4 32 4.1V472c0-8.8-7.2-16-16-16zM614 740c0-11.1 1.4-21.8 4.1-32H472c-8.8 0-16 7.2-16 16v32c0 8.8 7.2 16 16 16h146.1c-2.7-10.2-4.1-20.9-4.1-32z m234.8-63.6l103.3-103.3c6.2-6.2 6.2-16.4 0-22.6l-22.6-22.6c-6.2-6.2-16.4-6.2-22.6 0L803.6 631.2c18.6 10.9 34.3 26.6 45.2 45.2z m0 127.2c-10.9 18.7-26.6 34.3-45.3 45.3l103.3 103.3c6.2 6.2 16.4 6.2 22.6 0l22.6-22.6c6.2-6.2 6.2-16.4 0-22.6L848.8 803.6zM1008 708H861.9c2.7 10.2 4.1 20.9 4.1 32s-1.4 21.8-4.1 32H1008c8.8 0 16-7.2 16-16v-32c0-8.8-7.2-16-16-16zM708 861.9V1008c0 8.8 7.2 16 16 16h32c8.8 0 16-7.2 16-16V861.9c-10.2 2.7-20.9 4.1-32 4.1s-21.8-1.4-32-4.1z m-76.8-58.3L527.9 906.9c-6.2 6.2-6.2 16.4 0 22.6l22.6 22.6c6.2 6.2 16.4 6.2 22.6 0l103.3-103.3c-18.6-10.9-34.3-26.6-45.2-45.2z"/>
</svg>
