<?xml version="1.0" standalone="no"?><!DOCTYPE svg PUBLIC "-//W3C//DTD SVG 1.1//EN"
  "http://www.w3.org/Graphics/SVG/1.1/DTD/svg11.dtd">
<svg t="1632278046534" class="icon" viewBox="0 0 1024 1024" version="1.1" xmlns="http://www.w3.org/2000/svg"
     p-id="81345" xmlns:xlink="http://www.w3.org/1999/xlink" width="200" height="200">
  <defs>
    <style type="text/css"></style>
  </defs>
  <path
    d="M819.5 398c-106.3 0-192.8-86.5-192.8-192.8 0-106.3 86.5-192.8 192.8-192.8s192.8 86.5 192.8 192.8c0 106.3-86.5 192.8-192.8 192.8z m0-325.7c-73.2 0-132.8 59.6-132.8 132.8 0 73.2 59.6 132.8 132.8 132.8s132.8-59.6 132.8-132.8c0-73.2-59.5-132.8-132.8-132.8zM818.7 1022.2c-112.4 0-203.8-91.4-203.8-203.8s91.4-203.8 203.8-203.8 203.8 91.4 203.8 203.8-91.4 203.8-203.8 203.8z m0-347.7c-79.3 0-143.8 64.5-143.8 143.8s64.5 143.8 143.8 143.8 143.8-64.5 143.8-143.8S898 674.5 818.7 674.5zM244.8 748.8c-64.9 0-125.8-25.3-171.7-71.1C27.2 631.8 2 570.8 2 506c0-64.9 25.3-125.8 71.1-171.7s106.9-71.1 171.7-71.1c64.9 0 125.8 25.3 171.7 71.1 45.9 45.9 71.1 106.9 71.1 171.7 0 64.9-25.3 125.8-71.1 171.7-45.8 45.8-106.8 71.1-171.7 71.1z m0-425.7C144 323.1 62 405.1 62 506s82 182.8 182.8 182.8c100.8 0 182.8-82 182.8-182.8s-82-182.9-182.8-182.9z"
    p-id="81346"></path>
  <path
    d="M421.87 379.959l231.547-141 31.206 51.247-231.547 140.999zM415.295 638.284l28.314-52.896 239.53 128.215-28.314 52.896z"
    p-id="81347"></path>
</svg>
