<?xml version="1.0" standalone="no"?><!DOCTYPE svg PUBLIC "-//W3C//DTD SVG 1.1//EN"
  "http://www.w3.org/Graphics/SVG/1.1/DTD/svg11.dtd">
<svg class="icon" width="200px" height="200.00px" viewBox="0 0 1024 1024" version="1.1"
     xmlns="http://www.w3.org/2000/svg">
  <path
    d="M560.761905 28.16l345.892571 199.68a97.52381 97.52381 0 0 1 48.761905 84.455619v399.408762a97.52381 97.52381 0 0 1-48.761905 84.455619L560.761905 995.84a97.52381 97.52381 0 0 1-97.52381 0l-345.892571-199.68a97.52381 97.52381 0 0 1-48.761905-84.455619V312.295619a97.52381 97.52381 0 0 1 48.761905-84.455619L463.238095 28.16a97.52381 97.52381 0 0 1 97.52381 0zM512 219.428571C350.427429 219.428571 219.428571 350.427429 219.428571 512s130.998857 292.571429 292.571429 292.571429 292.571429-130.998857 292.571429-292.571429S673.572571 219.428571 512 219.428571z m-0.121905 29.379048c74.361905 0 141.360762 31.012571 189.318095 80.505905l-8.899047 2.56-9.020953 2.608762c-28.525714 8.362667-56.173714 17.066667-57.782857 20.016762-3.85219 6.168381-6.168381 22.186667-11.410285 23.113142-5.217524 0.926476-28.330667 6.168381-29.257143 13.141334-0.926476 6.948571-6.168381 25.429333-4.632381 33.889524 1.487238 8.484571-13.726476 11.385905-16.164572 21.625904-2.31619 9.99619 1.511619 28.330667 0 36.230096-1.511619 7.558095-34.499048 37.741714-21.601523 59.928381 11.727238 20.21181 25.429333 29.500952 39.253333 29.500952 1.511619 0 2.925714 0 4.632381-0.24381 9.435429-1.487238 16.749714-4.047238 21.625905-4.047238 3.242667 0 5.217524 1.145905 6.144 4.388572 2.340571 8.289524-6.144 14.872381 0 22.79619 6.168381 7.655619 12.312381 12.312381 8.484571 24.039619-3.82781 11.385905-2.31619 40.057905 3.267048 55.271619 5.217524 15.457524 5.217524 24.624762 12.288 26.014477 0.950857 0.365714 1.511619 0.365714 2.340571 0.365714 6.38781 0 14.043429-5.241905 22.186667-14.872381 9.411048-10.800762 18.456381-10.800762 21.601524-21.601524 3.242667-10.800762 13.116952-14.628571 13.116952-25.429333 0-10.800762-7.558095-30.086095-7.558095-38.692572 0-8.484571 36.254476-33.084952 35.425524-42.959238-0.926476-9.99619-10.800762-10.800762-6.144-23.113143 2.31619-6.38781 30.646857-12.921905 56.807619-17.554285C772.827429 659.407238 655.872 775.314286 512 775.314286c-24.868571 0-49.127619-3.486476-72.021333-9.996191 1.828571-6.339048 3.413333-12.117333 4.632381-16.627809l1.755428-6.582857 0.365714-1.414096c3.242667-11.385905 38.66819-37.741714 41.569524-50.883047 3.267048-13.116952 19.870476-42.374095 36.230096-49.127619 16.164571-6.972952 15.579429-33.889524 5.241904-45.29981-4.632381-5.217524-11.142095-6.38781-18.115047-6.387809-5.583238 0-11.385905 0.950857-16.384 0.950857-1.731048 0-3.486476 0-4.998096-0.585143-9.99619-2.340571-2.31619-19.870476-6.144-24.624762-1.511619-1.755429-3.267048-2.096762-5.583238-2.096762h-3.827809a21.77219 21.77219 0 0 1-10.800762-2.681905c-8.825905-4.632381-16.384-11.946667-27.769905-11.946666a21.942857 21.942857 0 0 0-4.632381 0.341333c-1.755429 0.341333-3.267048 0.341333-4.998095 0.341333-11.727238 0-21.601524-6.948571-30.427429-16.725333-9.99619-10.800762 13.702095-26.014476 9.411048-35.425524-4.656762-9.386667 8.46019-40.643048 19.260952-51.443809 4.071619-4.047238 11.897905-8.533333 20.236191-12.995048l8.387047-4.437333c11.068952-5.851429 21.089524-11.434667 22.25981-15.676953 2.31619-8.46019-7.558095-19.260952-15.457524-27.745523-7.558095-8.484571-50.858667-19.870476-64.682666-23.113143-7.314286-1.755429-21.382095-34.864762-33.109334-66.072381 42.983619-28.94019 94.208-46.250667 149.479619-46.250667z m-253.659428 192.682667c14.628571 4.998095 26.940952 11.166476 28.915809 17.554285 5.241905 16.944762 15.457524 15.555048 26.014476 18.456381 10.800762 3.267048 23.113143 38.66819 25.453715 45.29981 2.31619 6.972952 20.772571 8.484571 30.061714 8.484571 9.411048 0 29.281524 18.456381 35.425524 24.624762 6.168381 6.144 5.241905 20.772571 1.511619 42.374095-3.82781 21.625905 9.99619 24.624762 10.800762 32.524191 0.950857 7.558095 13.726476 15.457524 16.969143 25.453714 3.242667 9.99619 3.82781 24.039619-2.316191 36.815238-6.168381 13.116952-7.558095 30.086095-5.241905 40.057905 0.585143 3.267048-2.31619 13.141333-6.729143 25.453714-99.425524-37.766095-170.496-133.924571-170.496-246.588952 0-24.283429 3.242667-47.957333 9.630477-70.509714z"/>
</svg>
